<?xml version="1.0" encoding="utf-8"?>
<!-- Generator: Adobe Illustrator 23.0.3, SVG Export Plug-In . SVG Version: 6.00 Build 0)  -->
<svg version="1.1" id="Layer_1" xmlns="http://www.w3.org/2000/svg" xmlns:xlink="http://www.w3.org/1999/xlink" x="0px" y="0px"
	 viewBox="0 0 734.4 128.9" style="enable-background:new 0 0 734.4 128.9;" xml:space="preserve">
<style type="text/css">
	.st0{fill:#00C99C;}
	.st1{fill:#FFFFFF;}
</style>
<g>
	<g>
		<path d="M89.6,21.7c3.3,4.6,5,10.1,5,16.5c0,6.6-1.7,11.9-5,15.9c-1.9,2.3-4.6,4.3-8.3,6.2c5.5,2,9.7,5.2,12.5,9.5
			c2.8,4.4,4.2,9.6,4.2,15.9c0,6.4-1.6,12.2-4.8,17.3c-2,3.4-4.6,6.2-7.7,8.5c-3.5,2.6-7.5,4.5-12.2,5.4c-4.7,1-9.8,1.5-15.3,1.5
			H9.2V10.1h52.3C74.7,10.3,84.1,14.2,89.6,21.7z M30.8,28.9v23.9h26.3c4.7,0,8.5-0.9,11.4-2.7s4.4-5,4.4-9.5c0-5-1.9-8.4-5.8-10
			c-3.3-1.1-7.6-1.7-12.8-1.7C54.3,28.9,30.8,28.9,30.8,28.9z M30.8,70.7v28.9h26.3c4.7,0,8.3-0.6,11-1.9c4.7-2.4,7.1-6.9,7.1-13.5
			c0-5.6-2.3-9.5-6.9-11.6c-2.6-1.2-6.2-1.8-10.8-1.8L30.8,70.7L30.8,70.7z"/>
	</g>
	<g>
		<path d="M165.9,118.4H145V10.1h20.9V118.4z"/>
	</g>
	<g>
		<path d="M201.7,118.4h-20.9V10.1h20.9V118.4z"/>
	</g>
	<g>
		<path d="M227.2,118.4h-9V10.1h9V53c2.9-4.8,6.9-8.4,12-10.9s10.4-3.7,15.9-3.7c5.9,0,11.1,1.1,15.4,3.4c4.4,2.3,8,5.3,10.8,9
			s5,8.1,6.4,13.2c1.4,5,2.1,10.2,2.1,15.6c0,5.7-0.7,11.1-2,16.1s-3.4,9.4-6.2,13c-2.9,3.7-6.5,6.5-10.9,8.7
			c-4.4,2.1-9.8,3.2-16.1,3.2c-2.5,0-5.1-0.4-7.7-1.1c-2.6-0.7-5.1-1.7-7.6-3s-4.7-2.9-6.8-4.9s-3.7-4.2-5-6.8h-0.3L227.2,118.4
			L227.2,118.4z M227.2,79.1c0,4.7,0.6,9.1,1.7,13.2c1.2,4.1,2.8,7.6,5,10.5c2.2,3,5,5.3,8.3,7s7.1,2.6,11.3,2.6
			c3.8,0,7.3-0.7,10.5-2c3.2-1.4,6-3.3,8.4-5.9s4.3-5.8,5.6-9.6c1.4-3.8,2-8.1,2-13c0.2-4.9-0.2-9.5-1.2-13.8s-2.6-8-4.8-11.2
			c-2.2-3.2-5-5.7-8.5-7.6c-3.5-1.9-7.5-2.8-12.1-2.8c-4.1,0-7.8,0.9-11.1,2.6c-3.3,1.8-6,4.1-8.3,7.1s-4,6.4-5.2,10.4
			C227.8,70.5,227.2,74.7,227.2,79.1z"/>
	</g>
	<g>
		<path d="M334,120.5c-5-0.1-9.7-1-14.1-2.7s-8.2-4.3-11.4-7.7c-3.3-3.4-5.8-7.7-7.7-12.8c-1.9-5.1-2.9-11.1-2.9-17.9
			c0-5.7,0.8-11.1,2.3-16c1.5-5,3.8-9.3,6.8-13s6.8-6.6,11.3-8.8s9.8-3.2,15.8-3.2c6.1,0,11.4,1.1,15.9,3.2
			c4.5,2.2,8.3,5.1,11.3,8.7c3,3.7,5.2,8,6.7,13s2.2,10.4,2.2,16.1c0,6.2-0.9,11.8-2.6,16.8c-1.7,5-4.1,9.3-7.3,12.9
			c-3.2,3.6-7,6.4-11.4,8.3C344.4,119.5,339.4,120.5,334,120.5z M360.5,79.4c0-4.6-0.5-8.9-1.5-12.9s-2.6-7.5-4.7-10.5
			s-4.8-5.3-8.1-7c-3.3-1.7-7.4-2.6-12.2-2.6c-4.7,0-8.8,0.9-12.1,2.8c-3.4,1.9-6.1,4.3-8.2,7.4c-2.1,3.1-3.7,6.6-4.7,10.5
			c-1,4-1.5,8-1.5,12.3c0,4.8,0.6,9.3,1.7,13.3c1.2,4.1,2.8,7.5,5,10.5c2.2,2.9,5,5.2,8.3,6.8c3.3,1.6,7.1,2.4,11.4,2.4
			c4.7,0,8.7-0.9,12.1-2.8s6.1-4.3,8.2-7.4s3.7-6.6,4.7-10.5C360,87.7,360.5,83.6,360.5,79.4z"/>
	</g>
	<g>
		<path d="M413.6,120.5c-5-0.1-9.7-1-14.1-2.7s-8.2-4.3-11.4-7.7c-3.3-3.4-5.8-7.7-7.7-12.8c-1.9-5.1-2.9-11.1-2.9-17.9
			c0-5.7,0.8-11.1,2.3-16c1.5-5,3.8-9.3,6.8-13s6.8-6.6,11.3-8.8s9.8-3.2,15.8-3.2c6.1,0,11.4,1.1,15.9,3.2
			c4.5,2.2,8.3,5.1,11.3,8.7c3,3.7,5.2,8,6.7,13s2.2,10.4,2.2,16.1c0,6.2-0.9,11.8-2.6,16.8c-1.7,5-4.1,9.3-7.3,12.9
			c-3.2,3.6-7,6.4-11.4,8.3C424,119.5,419,120.5,413.6,120.5z M440.1,79.4c0-4.6-0.5-8.9-1.5-12.9S436,59,433.9,56s-4.8-5.3-8.1-7
			c-3.3-1.7-7.4-2.6-12.2-2.6c-4.7,0-8.8,0.9-12.1,2.8c-3.4,1.9-6.1,4.3-8.2,7.4c-2.1,3.1-3.7,6.6-4.7,10.5c-1,4-1.5,8-1.5,12.3
			c0,4.8,0.6,9.3,1.7,13.3c1.2,4.1,2.8,7.5,5,10.5c2.2,2.9,5,5.2,8.3,6.8c3.3,1.6,7.1,2.4,11.4,2.4c4.7,0,8.7-0.9,12.1-2.8
			s6.1-4.3,8.2-7.4s3.7-6.6,4.7-10.5C439.6,87.7,440.1,83.6,440.1,79.4z"/>
	</g>
	<g>
		<path d="M459.7,118.4V10.1h9v67.4l38.2-37h12.3L490,68.6l32.6,49.8h-10.1l-29.2-43.5l-14.7,14v29.5
			C468.6,118.4,459.7,118.4,459.7,118.4z"/>
	</g>
	<g>
		<path d="M534.7,94c1.4,6.7,3.9,11.5,7.6,14.2c3.7,2.8,8.9,4.1,15.7,4.1c3.3,0,6.2-0.4,8.6-1.2c2.4-0.8,4.4-1.9,5.9-3.2
			c1.6-1.4,2.7-2.9,3.5-4.6s1.2-3.5,1.2-5.4c0-3.8-1.2-6.6-3.7-8.5s-5.5-3.3-9.3-4.4c-3.7-1.1-7.7-2-12-2.7c-4.3-0.8-8.3-1.9-12-3.4
			s-6.8-3.7-9.3-6.5s-3.7-6.8-3.7-11.9c0-6.5,2.4-11.9,7.1-16c4.8-4.2,11.5-6.2,20.2-6.2c8.4,0,15.3,1.9,20.5,5.6
			c5.3,3.8,8.4,10.1,9.6,18.9h-9.2c-0.8-6-3.1-10.3-6.8-12.7c-3.8-2.5-8.5-3.7-14.2-3.7s-10.1,1.2-13.1,3.7s-4.5,5.7-4.5,9.7
			c0,3.5,1.2,6.2,3.7,8c2.5,1.9,5.5,3.4,9.3,4.5c3.7,1.2,7.7,2.2,12,3.1s8.3,2.2,12,3.8c3.7,1.7,6.8,3.9,9.3,6.7
			c2.5,2.8,3.7,6.7,3.7,11.7c0,3.7-0.8,7-2.4,9.9c-1.6,2.9-3.8,5.2-6.6,7.1s-6.1,3.3-10,4.3s-8.1,1.4-12.7,1.4
			c-4.6,0-8.7-0.7-12.3-2c-3.6-1.4-6.6-3.2-9.1-5.6s-4.5-5.2-5.9-8.4c-1.4-3.2-2.2-6.7-2.4-10.4h9.3V94z"/>
	</g>
	<g>
		<rect x="109" y="9.5" width="21.2" height="19.3"/>
	</g>
	<g>
		<polygon points="130.3,117.8 130.3,38.3 109,38.3 109,117.8 119.6,111.5 		"/>
	</g>
	<g>
		<polygon points="106.7,118.4 107,118.4 107,117.8 		"/>
	</g>
	<g>
		<polygon points="130.3,117.8 130.3,118.4 130.6,118.4 		"/>
	</g>
</g>
<g>
	<path class="st0" d="M716.7,68h-97.4c-4.3,0-7.8-3.5-7.8-7.8V17.9c0-4.3,3.5-7.8,7.8-7.8h97.4c4.3,0,7.8,3.5,7.8,7.8v42.3
		C724.5,64.5,721,68,716.7,68z"/>
</g>
<g>
	<path class="st1" d="M648.7,50.4h-3.5l-12.3-19.5h-0.1v19.5h-3.5V24.8h3.5l12.3,19.5h0.1V24.8h3.5V50.4z"/>
	<path class="st1" d="M671.5,38.5H661v9.2h12.3v2.7h-15.8V24.8h15.6v2.7H661v8.3h10.5V38.5z"/>
	<path class="st1" d="M685.4,41.5l0.4,3.4h0.1l0.6-3.4l4.5-16.7h3.4l4.6,16.7l0.6,3.4h0.1l0.5-3.4l3.7-16.7h3.8l-6.2,25.6h-3.1
		l-5.1-17.8l-0.4-2.3h-0.1l-0.4,2.3l-5.2,17.8h-3.1l-6.2-25.6h3.7L685.4,41.5z"/>
</g>
<g>
	<path d="M651.1,119.5h-21.5v-3.8l10.4-12.1c1.7-2,2.9-3.7,3.5-5c0.7-1.3,1-2.5,1-3.7c0-1.4-0.4-2.6-1.2-3.5s-1.9-1.3-3.4-1.3
		c-1.7,0-3.1,0.6-4,1.7s-1.4,2.5-1.4,4.2h-5.4v-0.1c-0.1-2.9,0.9-5.3,2.8-7.3c2-2,4.6-3,8-3c3.2,0,5.7,0.9,7.5,2.6s2.7,4,2.7,6.7
		c0,1.9-0.5,3.6-1.5,5.3s-2.7,3.9-4.9,6.6l-7,8.1v0.1h14.5L651.1,119.5L651.1,119.5z"/>
	<path d="M664.1,119.5h-5.6v-5.3h5.6V119.5z"/>
	<path d="M691.6,107.5c0,3.9-1,6.9-3,9.1s-4.6,3.3-8,3.3c-3.3,0-6-1.1-8-3.3c-2-2.2-3-5.3-3-9.1V98c0-3.8,1-6.9,3-9.1s4.6-3.4,8-3.4
		c3.3,0,6,1.1,8,3.4c2,2.2,3,5.3,3,9.1V107.5z M686,97.2c0-2.2-0.5-4-1.4-5.2c-0.9-1.3-2.3-1.9-4-1.9s-3,0.6-4,1.9
		c-0.9,1.3-1.4,3-1.4,5.2v11.1c0,2.3,0.5,4,1.4,5.3s2.3,1.9,4,1.9s3-0.6,4-1.9c0.9-1.3,1.4-3,1.4-5.3V97.2z"/>
</g>
</svg>
