<?xml version="1.0" encoding="utf-8"?>
<!-- Generator: Adobe Illustrator 23.1.1, SVG Export Plug-In . SVG Version: 6.00 Build 0)  -->
<svg version="1.1" id="Layer_1" xmlns="http://www.w3.org/2000/svg" xmlns:xlink="http://www.w3.org/1999/xlink" x="0px" y="0px"
	 viewBox="0 0 64.8 66" style="enable-background:new 0 0 64.8 66;" xml:space="preserve">
<style type="text/css">
	.st0{fill:#777777;}
</style>
<path class="st0" d="M32.4,1.7C15.1,1.7,1.1,15.7,1.1,33s14,31.3,31.3,31.3s31.3-14,31.3-31.3C63.7,15.7,49.7,1.7,32.4,1.7z
	 M32.4,60.3c-7.5,0-14.6-3.1-19.8-8.5C18,44.9,25,41.2,32.4,41.2s14.4,3.8,19.8,10.6C47.1,57.2,39.9,60.3,32.4,60.3L32.4,60.3z
	 M23.8,26.8c0-4.7,3.9-8.5,8.6-8.5s8.5,3.9,8.5,8.6c0,4.7-3.9,8.5-8.6,8.5C27.7,35.4,23.8,31.6,23.8,26.8z M54.8,48.6
	c-4.1-5.3-9.9-9-16.4-10.7c6.1-3.3,8.4-10.9,5-17s-10.9-8.4-17-5s-8.4,10.9-5,17c1.2,2.1,2.9,3.9,5,5c-6.5,1.7-12.2,5.4-16.4,10.7
	c-8.6-12.4-5.6-29.4,6.8-38s29.4-5.6,38,6.8C61.3,26.7,61.3,39.2,54.8,48.6L54.8,48.6z"/>
</svg>
